{
  "accessors": [
    {
      "bufferView": 2,
      "componentType": 5126,
      "count": 2768,
      "max": [
        1.1462337970733643,
        1.7246357202529907,
        1.3015449047088623
      ],
      "min": [
        -3.8288893699645996,
        -1.7246369123458862,
        -1.7330083847045898
      ],
      "type": "VEC3"
    },
    {
      "bufferView": 2,
      "byteOffset": 33216,
      "componentType": 5126,
      "count": 2768,
      "max": [
        1.0,
        1.0,
        1.0
      ],
      "min": [
        -1.0,
        -1.0,
        -1.0
      ],
      "type": "VEC3"
    },
    {
      "bufferView": 1,
      "componentType": 5126,
      "count": 2768,
      "max": [
        1.0000001192092896,
        1.0
      ],
      "min": [
        0.0,
        0.0
      ],
      "type": "VEC2"
    },
    {
      "bufferView": 0,
      "componentType": 5125,
      "count": 11796,
      "type": "SCALAR"
    },
    {
      "bufferView": 2,
      "byteOffset": 66432,
      "componentType": 5126,
      "count": 844,
      "max": [
        0.6232737898826599,
        0.6287091374397278,
        0.9966281652450562
      ],
      "min": [
        -0.6341444849967957,
        -0.6287091374397278,
        -0.3777298033237457
      ],
      "type": "VEC3"
    },
    {
      "bufferView": 2,
      "byteOffset": 76560,
      "componentType": 5126,
      "count": 844,
      "max": [
        1.0,
        1.0,
        1.0
      ],
      "min": [
        -1.0,
        -1.0,
        -1.0
      ],
      "type": "VEC3"
    },
    {
      "bufferView": 1,
      "byteOffset": 22144,
      "componentType": 5126,
      "count": 844,
      "max": [
        1.0,
        1.0
      ],
      "min": [
        -6.873160600662231e-07,
        0.0
      ],
      "type": "VEC2"
    },
    {
      "bufferView": 0,
      "byteOffset": 47184,
      "componentType": 5125,
      "count": 2394,
      "type": "SCALAR"
    },
    {
      "bufferView": 2,
      "byteOffset": 86688,
      "componentType": 5126,
      "count": 100,
      "max": [
        0.5391843318939209,
        0.8700780868530273,
        1.6621558666229248
      ],
      "min": [
        -2.6867856979370117,
        -0.9269946813583374,
        0.8449559807777405
      ],
      "type": "VEC3"
    },
    {
      "bufferView": 2,
      "byteOffset": 87888,
      "componentType": 5126,
      "count": 100,
      "max": [
        0.0771666020154953,
        0.43350669741630554,
        1.0
      ],
      "min": [
        -0.131797656416893,
        -0.484203040599823,
        0.871963381767273
      ],
      "type": "VEC3"
    },
    {
      "bufferView": 1,
      "byteOffset": 28896,
      "componentType": 5126,
      "count": 100,
      "max": [
        0.49000000953674316,
        0.49000000953674316
      ],
      "min": [
        0.01000000536441803,
        0.04209984466433525
      ],
      "type": "VEC2"
    },
    {
      "bufferView": 0,
      "byteOffset": 56760,
      "componentType": 5125,
      "count": 282,
      "type": "SCALAR"
    },
    {
      "bufferView": 2,
      "byteOffset": 89088,
      "componentType": 5126,
      "count": 559,
      "max": [
        -1.4875476360321045,
        1.1360934972763062,
        1.653505802154541
      ],
      "min": [
        -3.3626840114593506,
        -1.1360942125320435,
        0.5576189756393433
      ],
      "type": "VEC3"
    },
    {
      "bufferView": 2,
      "byteOffset": 95796,
      "componentType": 5126,
      "count": 559,
      "max": [
        1.0,
        1.0,
        1.0
      ],
      "min": [
        -1.0,
        -1.0,
        -1.0
      ],
      "type": "VEC3"
    },
    {
      "bufferView": 1,
      "byteOffset": 29696,
      "componentType": 5126,
      "count": 559,
      "max": [
        1.0000001192092896,
        1.0
      ],
      "min": [
        0.0,
        0.0
      ],
      "type": "VEC2"
    },
    {
      "bufferView": 0,
      "byteOffset": 57888,
      "componentType": 5125,
      "count": 2880,
      "type": "SCALAR"
    },
    {
      "bufferView": 2,
      "byteOffset": 102504,
      "componentType": 5126,
      "count": 2562,
      "max": [
        -1.7791671752929688,
        1.810256838798523,
        1.45720636844635
      ],
      "min": [
        -4.669938087463379,
        -1.810257911682129,
        -1.9054317474365234
      ],
      "type": "VEC3"
    },
    {
      "bufferView": 2,
      "byteOffset": 133248,
      "componentType": 5126,
      "count": 2562,
      "max": [
        0.9998239874839783,
        0.9997556209564209,
        0.9999615550041199
      ],
      "min": [
        -0.9991070032119751,
        -0.9997555613517761,
        -0.9986262321472168
      ],
      "type": "VEC3"
    },
    {
      "bufferView": 1,
      "byteOffset": 34168,
      "componentType": 5126,
      "count": 2562,
      "max": [
        1.0000978708267212,
        1.0
      ],
      "min": [
        -9.789815521799028e-05,
        0.0
      ],
      "type": "VEC2"
    },
    {
      "bufferView": 0,
      "byteOffset": 69408,
      "componentType": 5125,
      "count": 13044,
      "type": "SCALAR"
    },
    {
      "bufferView": 2,
      "byteOffset": 163992,
      "componentType": 5126,
      "count": 6814,
      "max": [
        1.1862337589263916,
        1.8502458333969116,
        1.701750636100769
      ],
      "min": [
        -4.709587574005127,
        -1.8502469062805176,
        -1.9453755617141724
      ],
      "type": "VEC3"
    },
    {
      "bufferView": 2,
      "byteOffset": 245760,
      "componentType": 5126,
      "count": 6814,
      "max": [
        1.0,
        1.0,
        1.0
      ],
      "min": [
        -1.0,
        -1.0,
        -1.0
      ],
      "type": "VEC3"
    },
    {
      "bufferView": 1,
      "byteOffset": 54664,
      "componentType": 5126,
      "count": 6814,
      "max": [
        1.0000978708267212,
        1.0
      ],
      "min": [
        -9.789815521799028e-05,
        0.0
      ],
      "type": "VEC2"
    },
    {
      "bufferView": 0,
      "byteOffset": 121584,
      "componentType": 5125,
      "count": 30516,
      "type": "SCALAR"
    },
    {
      "bufferView": 3,
      "componentType": 5126,
      "count": 490,
      "max": [
        10.375
      ],
      "min": [
        0.0
      ],
      "type": "SCALAR"
    },
    {
      "bufferView": 4,
      "componentType": 5126,
      "count": 490,
      "max": [
        0.0,
        313.23052978515625,
        0.0
      ],
      "min": [
        0.0,
        50.09617233276367,
        0.0
      ],
      "type": "VEC3"
    }
  ],
  "animations": [
    {
      "channels": [
        {
          "sampler": 0,
          "target": {
            "node": 4,
            "path": "translation"
          }
        }
      ],
      "name": "Sphere|SphereAction",
      "samplers": [
        {
          "input": 24,
          "interpolation": "LINEAR",
          "output": 25
        }
      ]
    }
  ],
  "asset": {
    "extras": {
      "author": "Dany (https://sketchfab.com/natalagnatuk682)",
      "license": "CC-BY-4.0 (http://creativecommons.org/licenses/by/4.0/)",
      "source": "https://sketchfab.com/3d-models/robot-heese-2db320cde74d452b8e0cbf5baf0eef56",
      "title": "Robot Сheese"
    },
    "generator": "Sketchfab-14.90.0",
    "version": "2.0"
  },
  "bufferViews": [
    {
      "buffer": 0,
      "byteLength": 243648,
      "name": "floatBufferViews",
      "target": 34963
    },
    {
      "buffer": 0,
      "byteLength": 109176,
      "byteOffset": 243648,
      "byteStride": 8,
      "name": "floatBufferViews",
      "target": 34962
    },
    {
      "buffer": 0,
      "byteLength": 327528,
      "byteOffset": 352824,
      "byteStride": 12,
      "name": "floatBufferViews",
      "target": 34962
    },
    {
      "buffer": 0,
      "byteLength": 1960,
      "byteOffset": 680352,
      "name": "floatBufferViews"
    },
    {
      "buffer": 0,
      "byteLength": 5880,
      "byteOffset": 682312,
      "byteStride": 12,
      "name": "floatBufferViews"
    }
  ],
  "buffers": [
    {
      "byteLength": 688192,
      "uri": "robot3.bin"
    }
  ],
  "extensionsUsed": [
    "KHR_materials_emissive_strength",
    "KHR_materials_specular"
  ],
  "materials": [
    {
      "doubleSided": true,
      "name": "Material.007",
      "pbrMetallicRoughness": {
        "baseColorFactor": [
          0.8,
          0.8,
          0.8,
          1.0
        ],
        "metallicFactor": 0.0,
        "roughnessFactor": 0.0
      }
    },
    {
      "doubleSided": true,
      "name": "Material.004",
      "pbrMetallicRoughness": {
        "baseColorFactor": [
          0.703749,
          0.655273,
          0.702954,
          1.0
        ],
        "metallicFactor": 0.0,
        "roughnessFactor": 0.788436804829979
      }
    },
    {
      "doubleSided": true,
      "emissiveFactor": [
        0.006865651162706422,
        0.03798498707006296,
        0.07149847734860362
      ],
      "extensions": {
        "KHR_materials_emissive_strength": {
          "emissiveStrength": 10.0
        }
      },
      "name": "Material.002",
      "pbrMetallicRoughness": {
        "baseColorFactor": [
          0.8,
          0.8,
          0.8,
          1.0
        ],
        "metallicFactor": 0.0,
        "roughnessFactor": 0.8735234240713876
      }
    },
    {
      "alphaMode": "BLEND",
      "doubleSided": true,
      "name": "Material.005",
      "pbrMetallicRoughness": {
        "baseColorFactor": [
          0.03692565105178666,
          0.026042370734390703,
          0.30026978286695144,
          0.9188599431922078
        ],
        "metallicFactor": 0.0
      }
    },
    {
      "doubleSided": true,
      "name": "Material.006",
      "pbrMetallicRoughness": {
        "baseColorFactor": [
          0.7999999999999999,
          0.36555500000000013,
          0.5704369999999999,
          1.0
        ],
        "metallicFactor": 0.0
      }
    },
    {
      "extensions": {
        "KHR_materials_specular": {
          "specularColorFactor": [
            1.0,
            1.0,
            1.0
          ],
          "specularFactor": 0.5165730028891516
        }
      },
      "name": "Material",
      "pbrMetallicRoughness": {
        "baseColorFactor": [
          0.0,
          0.0,
          0.0,
          1.0
        ],
        "metallicFactor": 0.0,
        "roughnessFactor": 0.19595917942265426
      }
    }
  ],
  "meshes": [
    {
      "name": "Sphere_Material.007_0",
      "primitives": [
        {
          "attributes": {
            "NORMAL": 1,
            "POSITION": 0,
            "TEXCOORD_0": 2
          },
          "indices": 3,
          "material": 0,
          "mode": 4
        }
      ]
    },
    {
      "name": "Sphere_Material.004_0",
      "primitives": [
        {
          "attributes": {
            "NORMAL": 5,
            "POSITION": 4,
            "TEXCOORD_0": 6
          },
          "indices": 7,
          "material": 1,
          "mode": 4
        }
      ]
    },
    {
      "name": "Sphere_Material.002_0",
      "primitives": [
        {
          "attributes": {
            "NORMAL": 9,
            "POSITION": 8,
            "TEXCOORD_0": 10
          },
          "indices": 11,
          "material": 2,
          "mode": 4
        }
      ]
    },
    {
      "name": "Sphere_Material.005_0",
      "primitives": [
        {
          "attributes": {
            "NORMAL": 13,
            "POSITION": 12,
            "TEXCOORD_0": 14
          },
          "indices": 15,
          "material": 3,
          "mode": 4
        }
      ]
    },
    {
      "name": "Sphere_Material.006_0",
      "primitives": [
        {
          "attributes": {
            "NORMAL": 17,
            "POSITION": 16,
            "TEXCOORD_0": 18
          },
          "indices": 19,
          "material": 4,
          "mode": 4
        }
      ]
    },
    {
      "name": "Sphere_Material_0",
      "primitives": [
        {
          "attributes": {
            "NORMAL": 21,
            "POSITION": 20,
            "TEXCOORD_0": 22
          },
          "indices": 23,
          "material": 5,
          "mode": 4
        }
      ]
    }
  ],
  "nodes": [
    {
      "children": [
        1
      ],
      "matrix": [
        1.0,
        0.0,
        0.0,
        0.0,
        0.0,
        2.220446049250313e-16,
        -1.0,
        0.0,
        0.0,
        1.0,
        2.220446049250313e-16,
        0.0,
        0.0,
        0.0,
        0.0,
        1.0
      ],
      "name": "Sketchfab_model"
    },
    {
      "children": [
        2
      ],
      "matrix": [
        0.009999999776482582,
        0.0,
        0.0,
        0.0,
        0.0,
        0.0,
        0.009999999776482582,
        0.0,
        0.0,
        -0.009999999776482582,
        0.0,
        0.0,
        0.0,
        0.0,
        0.0,
        1.0
      ],
      "name": "robot.fbx"
    },
    {
      "children": [
        3
      ],
      "name": "Object_2"
    },
    {
      "children": [
        4
      ],
      "name": "RootNode"
    },
    {
      "children": [
        5,
        6,
        7,
        8,
        9,
        10
      ],
      "name": "Sphere",
      "rotation": [
        -0.5,
        0.5,
        -0.5,
        0.4999999701976776
      ],
      "scale": [
        100.0,
        100.0,
        82.12692260742188
      ],
      "translation": [
        0.0,
        247.81541442871094,
        0.0
      ]
    },
    {
      "mesh": 0,
      "name": "Sphere_Material.007_0"
    },
    {
      "mesh": 1,
      "name": "Sphere_Material.004_0"
    },
    {
      "mesh": 2,
      "name": "Sphere_Material.002_0"
    },
    {
      "mesh": 3,
      "name": "Sphere_Material.005_0"
    },
    {
      "mesh": 4,
      "name": "Sphere_Material.006_0"
    },
    {
      "mesh": 5,
      "name": "Sphere_Material_0"
    }
  ],
  "scene": 0,
  "scenes": [
    {
      "name": "Sketchfab_Scene",
      "nodes": [
        0
      ]
    }
  ]
}
