{
  "accessors": [
    {
      "bufferView": 2,
      "componentType": 5126,
      "count": 11715,
      "max": [
        1.0160146951675415,
        1.0160146951675415,
        1.050026297569275
      ],
      "min": [
        -1.0160146951675415,
        -1.0160146951675415,
        -1.050026297569275
      ],
      "type": "VEC3"
    },
    {
      "bufferView": 2,
      "byteOffset": 140580,
      "componentType": 5126,
      "count": 11715,
      "max": [
        1.0,
        0.9992000460624695,
        1.0
      ],
      "min": [
        -1.0,
        -0.9992003440856934,
        -1.0
      ],
      "type": "VEC3"
    },
    {
      "bufferView": 1,
      "componentType": 5126,
      "count": 11715,
      "max": [
        1.0,
        1.0
      ],
      "min": [
        0.0,
        0.0
      ],
      "type": "VEC2"
    },
    {
      "bufferView": 0,
      "componentType": 5125,
      "count": 17292,
      "type": "SCALAR"
    },
    {
      "bufferView": 2,
      "byteOffset": 281160,
      "componentType": 5126,
      "count": 2352,
      "max": [
        0.9799032211303711,
        0.9799032211303711,
        1.0500009059906006
      ],
      "min": [
        -0.9799032211303711,
        -0.9799032211303711,
        -1.0500009059906006
      ],
      "type": "VEC3"
    },
    {
      "bufferView": 2,
      "byteOffset": 309384,
      "componentType": 5126,
      "count": 2352,
      "max": [
        1.0,
        1.0,
        0.8479945659637451
      ],
      "min": [
        -1.0,
        -1.0,
        -0.8479945659637451
      ],
      "type": "VEC3"
    },
    {
      "bufferView": 1,
      "byteOffset": 93720,
      "componentType": 5126,
      "count": 2352,
      "max": [
        0.48517680168151855,
        0.48517683148384094
      ],
      "min": [
        0.0,
        0.0
      ],
      "type": "VEC2"
    },
    {
      "bufferView": 0,
      "byteOffset": 69168,
      "componentType": 5125,
      "count": 3528,
      "type": "SCALAR"
    }
  ],
  "asset": {
    "extras": {
      "author": "TomaszObloj (https://sketchfab.com/tomasz_obloj)",
      "license": "CC-BY-4.0 (http://creativecommons.org/licenses/by/4.0/)",
      "source": "https://sketchfab.com/3d-models/gold-coin-f7e0f529593240008d0c63e38666a308",
      "title": "Gold coin"
    },
    "generator": "Sketchfab-12.68.0",
    "version": "2.0"
  },
  "bufferViews": [
    {
      "buffer": 0,
      "byteLength": 83280,
      "name": "floatBufferViews",
      "target": 34963
    },
    {
      "buffer": 0,
      "byteLength": 112536,
      "byteOffset": 83280,
      "byteStride": 8,
      "name": "floatBufferViews",
      "target": 34962
    },
    {
      "buffer": 0,
      "byteLength": 337608,
      "byteOffset": 195816,
      "byteStride": 12,
      "name": "floatBufferViews",
      "target": 34962
    }
  ],
  "buffers": [
    {
      "byteLength": 533424,
      "uri": "coin.bin"
    }
  ],
  "materials": [
    {
      "doubleSided": true,
      "name": "Gold",
      "pbrMetallicRoughness": {
        "baseColorFactor": [
          0.8,
          0.380602,
          0.0,
          1.0
        ],
        "metallicFactor": 0.0,
        "roughnessFactor": 0.8749024724
      }
    },
    {
      "doubleSided": true,
      "name": "SmothGold",
      "pbrMetallicRoughness": {
        "baseColorFactor": [
          0.8,
          0.380602,
          0.0,
          1.0
        ],
        "metallicFactor": 0.0,
        "roughnessFactor": 0.8749024724
      }
    }
  ],
  "meshes": [
    {
      "name": "Coin_Gold_0",
      "primitives": [
        {
          "attributes": {
            "NORMAL": 1,
            "POSITION": 0,
            "TEXCOORD_0": 2
          },
          "indices": 3,
          "material": 0,
          "mode": 4
        }
      ]
    },
    {
      "name": "Coin_SmothGold_0",
      "primitives": [
        {
          "attributes": {
            "NORMAL": 5,
            "POSITION": 4,
            "TEXCOORD_0": 6
          },
          "indices": 7,
          "material": 1,
          "mode": 4
        }
      ]
    }
  ],
  "nodes": [
    {
      "children": [
        1
      ],
      "matrix": [
        1.0,
        0.0,
        0.0,
        0.0,
        0.0,
        2.220446049250313e-16,
        -1.0,
        0.0,
        0.0,
        1.0,
        2.220446049250313e-16,
        0.0,
        0.0,
        0.0,
        0.0,
        1.0
      ],
      "name": "Sketchfab_model"
    },
    {
      "children": [
        2
      ],
      "matrix": [
        0.009999999776482582,
        0.0,
        0.0,
        0.0,
        0.0,
        0.0,
        0.009999999776482582,
        0.0,
        0.0,
        -0.009999999776482582,
        0.0,
        0.0,
        0.0,
        0.0,
        0.0,
        1.0
      ],
      "name": "1ebc30ed072c456cbac8c62d8284b4d9.fbx"
    },
    {
      "children": [
        3
      ],
      "name": "RootNode"
    },
    {
      "children": [
        4,
        5
      ],
      "matrix": [
        100.0,
        0.0,
        0.0,
        0.0,
        0.0,
        -1.629206793918314e-05,
        -99.99999999999868,
        0.0,
        0.0,
        10.000001907348501,
        -1.6292071046648492e-06,
        0.0,
        0.0,
        0.0,
        0.0,
        1.0
      ],
      "name": "Coin"
    },
    {
      "mesh": 0,
      "name": "Coin_Gold_0"
    },
    {
      "mesh": 1,
      "name": "Coin_SmothGold_0"
    }
  ],
  "scene": 0,
  "scenes": [
    {
      "name": "Sketchfab_Scene",
      "nodes": [
        0
      ]
    }
  ]
}
